<svg width="24" height="24" viewBox="0 0 24 24" xmlns="http://www.w3.org/2000/svg">
    <g fill="none" fill-rule="evenodd">
        <path d="M0 0h24v24H0z"/>
        <g fill="#B5B5B5" fill-rule="nonzero">
            <path d="M11.962 10.709a.8.8 0 0 1 .8.8l.005 8.842a.8.8 0 0 1-1.6.001l-.004-8.843a.8.8 0 0 1 .8-.8z"/>
            <path d="M2.11 7.172a8.04 8.04 0 0 1 14.672.93l.065.186.545.001c2.32-.002 4.332 1.222 5.083 3.25l.076.22a5.325 5.325 0 0 1-2.013 5.963.8.8 0 1 1-.92-1.308 3.725 3.725 0 0 0 1.408-4.172c-.459-1.448-1.89-2.354-3.633-2.353h-1.14a.8.8 0 0 1-.775-.601 6.44 6.44 0 1 0-11.06 5.868.8.8 0 1 1-1.199 1.06 8.04 8.04 0 0 1-1.108-9.044z"/>
            <path d="M11.397 10.094a.8.8 0 0 1 1.131 0l3.127 3.127a.8.8 0 1 1-1.131 1.13l-2.562-2.56-2.56 2.56a.8.8 0 0 1-1.042.078l-.09-.077a.8.8 0 0 1 0-1.131l3.127-3.127z"/>
        </g>
    </g>
</svg>
