<svg width="46" height="38" viewBox="0 0 46 38" fill="none" xmlns="http://www.w3.org/2000/svg">
<path fill-rule="evenodd" clip-rule="evenodd" d="M11.1686 26.5771L9.80805 20.9961C9.43233 19.4549 9.64441 18.0036 10.4443 16.6421C11.2442 15.2807 12.3976 14.4078 13.9045 14.0236L35.0503 8.63147C36.5572 8.24722 37.9763 8.46412 39.3075 9.28218C40.6387 10.1002 41.4922 11.2798 41.8679 12.821L44.9292 25.3783C45.3049 26.9194 45.0929 28.3708 44.293 29.7322C43.4931 31.0937 42.3397 31.9666 40.8328 32.3508L19.6869 37.7429C18.18 38.1271 16.761 37.9103 15.4298 37.0922C14.0985 36.2741 13.2451 35.0945 12.8694 33.5534L11.1686 26.5771Z" fill="#CEEAF7"/>
<g style="mix-blend-mode:multiply">
<path fill-rule="evenodd" clip-rule="evenodd" d="M2.02996 18.7334L0.669374 13.1523C0.293659 11.6112 0.505739 10.1599 1.30561 8.79839C2.10549 7.43692 3.25888 6.56406 4.76579 6.17981L25.9117 0.787724C27.4186 0.403471 28.8376 0.620372 30.1688 1.43843C31.5001 2.25648 32.3535 3.43608 32.7292 4.97724L35.7906 17.5345C36.1663 19.0757 35.9542 20.527 35.1543 21.8885C34.3544 23.25 33.201 24.1228 31.6941 24.5071L10.5483 29.8992C9.04136 30.2834 7.6223 30.0665 6.29108 29.2485C4.95986 28.4304 4.1064 27.2508 3.73069 25.7096L2.02996 18.7334Z" fill="#F8BA90"/>
</g>
</svg>
