<svg width="567" height="841" viewBox="0 0 567 841" fill="none" xmlns="http://www.w3.org/2000/svg">
<path fill-rule="evenodd" clip-rule="evenodd" d="M293.134 70C293.134 50.67 299.816 34.1709 313.181 20.5025C326.545 6.83417 342.678 0 361.578 0C380.479 0 396.611 6.83417 409.976 20.5025C423.34 34.1709 430.023 50.67 430.023 70C430.023 89.33 423.34 105.829 409.976 119.497C396.611 133.166 380.479 140 361.578 140C342.678 140 326.545 133.166 313.181 119.497C299.816 105.829 293.134 89.33 293.134 70Z" fill="#84BDC2"/>
<path fill-rule="evenodd" clip-rule="evenodd" d="M293.134 491C293.134 471.67 299.816 455.171 313.181 441.503C326.545 427.834 342.678 421 361.578 421C380.479 421 396.611 427.834 409.976 441.503C423.34 455.171 430.023 471.67 430.023 491C430.023 510.33 423.34 526.829 409.976 540.497C396.611 554.166 380.479 561 361.578 561C342.678 561 326.545 554.166 313.181 540.497C299.816 526.829 293.134 510.33 293.134 491Z" fill="#84BDC2"/>
<path fill-rule="evenodd" clip-rule="evenodd" d="M498.467 0H566.911V140H430.022V70C430.022 31.3401 460.666 0 498.467 0Z" fill="#F8BA90"/>
<path fill-rule="evenodd" clip-rule="evenodd" d="M498.467 421H566.911V561H430.022V491C430.022 452.34 460.666 421 498.467 421Z" fill="#F8BA90"/>
<path fill-rule="evenodd" clip-rule="evenodd" d="M497.489 280C535.29 280 565.934 311.34 565.934 350V420H429.045V350C429.045 311.34 459.689 280 497.489 280Z" fill="#CEEAF7"/>
<path fill-rule="evenodd" clip-rule="evenodd" d="M497.489 701C535.29 701 565.934 732.34 565.934 771V841H429.045V771C429.045 732.34 459.689 701 497.489 701Z" fill="#CEEAF7"/>
<path fill-rule="evenodd" clip-rule="evenodd" d="M292.155 280H360.6C398.4 280 429.044 311.34 429.044 350V420H360.6C322.799 420 292.155 388.66 292.155 350V280Z" fill="#F8BA90"/>
<path fill-rule="evenodd" clip-rule="evenodd" d="M292.155 701H360.6C398.4 701 429.044 732.34 429.044 771V841H360.6C322.799 841 292.155 809.66 292.155 771V701Z" fill="#F8BA90"/>
<path fill-rule="evenodd" clip-rule="evenodd" d="M430.022 140H566.911V280H498.467C460.666 280 430.022 248.66 430.022 210V140Z" fill="#84BDC2"/>
<path fill-rule="evenodd" clip-rule="evenodd" d="M430.022 561H566.911V701H498.467C460.666 701 430.022 669.66 430.022 631V561Z" fill="#84BDC2"/>
<path fill-rule="evenodd" clip-rule="evenodd" d="M293.134 140H430.023V210C430.023 248.66 399.379 280 361.578 280H293.134V140Z" fill="#CEEAF7"/>
<path fill-rule="evenodd" clip-rule="evenodd" d="M293.134 561H430.023V631C430.023 669.66 399.379 701 361.578 701H293.134V561Z" fill="#CEEAF7"/>
<path fill-rule="evenodd" clip-rule="evenodd" d="M137.667 70C137.667 50.67 144.349 34.1709 157.714 20.5025C171.079 6.83417 187.211 0 206.111 0C225.012 0 241.144 6.83417 254.509 20.5025C267.874 34.1709 274.556 50.67 274.556 70C274.556 89.33 267.874 105.829 254.509 119.497C241.144 133.166 225.012 140 206.111 140C187.211 140 171.079 133.166 157.714 119.497C144.349 105.829 137.667 89.33 137.667 70Z" fill="#84BDC2"/>
<path fill-rule="evenodd" clip-rule="evenodd" d="M137.667 491C137.667 471.67 144.349 455.171 157.714 441.503C171.079 427.834 187.211 421 206.111 421C225.012 421 241.144 427.834 254.509 441.503C267.874 455.171 274.556 471.67 274.556 491C274.556 510.33 267.874 526.829 254.509 540.497C241.144 554.166 225.012 561 206.111 561C187.211 561 171.079 554.166 157.714 540.497C144.349 526.829 137.667 510.33 137.667 491Z" fill="#84BDC2"/>
<path fill-rule="evenodd" clip-rule="evenodd" d="M0.777344 0H69.2218C107.023 0 137.666 31.3401 137.666 70V140H0.777344V0Z" fill="#F8BA90"/>
<path fill-rule="evenodd" clip-rule="evenodd" d="M0.777344 421H69.2218C107.023 421 137.666 452.34 137.666 491V561H0.777344V421Z" fill="#F8BA90"/>
<path fill-rule="evenodd" clip-rule="evenodd" d="M70.2003 280C108.001 280 138.645 311.34 138.645 350V420H1.75586V350C1.75585 311.34 32.3995 280 70.2003 280Z" fill="#CEEAF7"/>
<path fill-rule="evenodd" clip-rule="evenodd" d="M70.2003 701C108.001 701 138.645 732.34 138.645 771V841H1.75586V771C1.75585 732.34 32.3995 701 70.2003 701Z" fill="#CEEAF7"/>
<path fill-rule="evenodd" clip-rule="evenodd" d="M207.089 280H275.533V350C275.533 388.66 244.89 420 207.089 420H138.645V350C138.645 311.34 169.288 280 207.089 280Z" fill="#F8BA90"/>
<path fill-rule="evenodd" clip-rule="evenodd" d="M207.089 701H275.533V771C275.533 809.66 244.89 841 207.089 841H138.645V771C138.645 732.34 169.288 701 207.089 701Z" fill="#F8BA90"/>
<path fill-rule="evenodd" clip-rule="evenodd" d="M0.777344 140H137.666V210C137.666 248.66 107.023 280 69.2218 280H0.777344V140Z" fill="#84BDC2"/>
<path fill-rule="evenodd" clip-rule="evenodd" d="M0.777344 561H137.666V631C137.666 669.66 107.023 701 69.2218 701H0.777344V561Z" fill="#84BDC2"/>
<path fill-rule="evenodd" clip-rule="evenodd" d="M137.667 140H274.556V280H206.111C168.311 280 137.667 248.66 137.667 210V140Z" fill="#CEEAF7"/>
<path fill-rule="evenodd" clip-rule="evenodd" d="M137.667 561H274.556V701H206.111C168.311 701 137.667 669.66 137.667 631V561Z" fill="#CEEAF7"/>
</svg>
