<svg width="162" height="40" viewBox="0 0 162 40" xmlns="http://www.w3.org/2000/svg">
    <g fill="none" fill-rule="evenodd">
        <g fill="#242424" fill-rule="nonzero">
            <path d="M60.337 9.333H56v19.573h15.33V24.73H60.338zM79.755 28.606c1.734 0 6.27-.134 6.27-6.004v-8.218h-2.881v8.298s.16 3.389-3.389 3.389-3.389-3.389-3.389-3.389v-8.298h-2.881v8.218c0 5.87 4.536 6.004 6.27 6.004z"/>
            <path d="M76.994 13.656h-4.337v8.946c0 5.05 2.646 6.661 6.724 6.73l.274.001c4.234 0 6.998-1.57 6.998-6.731v-8.946h-4.337V22.8a3.025 3.025 0 0 1-.41 1.48c-.41.675-1.103 1.063-2.251 1.063s-1.842-.388-2.252-1.063c-.283-.467-.401-1.017-.41-1.495l.001-9.129zM105.984 13.957c-2.615 0-4.056 1.067-4.696 2.268-.88-1.494-2.401-2.268-4.35-2.268-2.774 0-3.708 1.707-3.868 2.081v-1.654h-2.882v13.795h2.882V19.88c.213-2.241 1.84-3.362 3.442-3.362 1.894 0 2.695 1.254 2.695 3.47v8.19h2.882v-7.764c0-2.588 1.734-3.896 3.468-3.896 1.895 0 2.695 1.254 2.695 3.47v8.19h2.882v-8.484c0-3.79-2.055-5.737-5.15-5.737z"/>
            <path d="m105.784 13.229-.336.006c-1.88.064-3.34.668-4.293 1.667l-.077.083-.02-.022c-1.04-1.138-2.531-1.734-4.32-1.734l-.308.006c-1.114.045-2.014.335-2.71.774l-.123.082v-.435H89.26v15.25h4.337V19.88c.158-1.62 1.305-2.634 2.715-2.634 1.373 0 1.967.803 1.967 2.741v8.92h4.337v-8.493c0-1.973 1.195-3.168 2.741-3.168 1.373 0 1.968.803 1.968 2.741v8.92h4.337v-9.213c0-4.06-2.256-6.465-5.878-6.465zM120.973 13.256c1.33 0 2.601.317 3.654.864l.26.142.002-.606h4.31v15.25h-4.378l.012-.615-.21.127c-.927.518-2.017.829-3.27.88l-.38.009c-4.543 0-7.932-3.504-7.932-8.012 0-4.513 3.393-8.04 7.932-8.04zm.214 3.289c-2.588 0-4.536 2.108-4.536 4.723 0 2.615 1.948 4.75 4.536 4.75 2.562 0 4.59-1.735 4.59-4.75 0-2.989-2.028-4.723-4.59-4.723zM147.917 9.333l8.705 19.573h-5l-1.735-4.297h-7.742l-1.735 4.297h-5l8.706-19.573h3.8zm-1.887 4.117-3.282 7.711h6.537l-3.255-7.711zM162.004 9.333h-4.364v19.573h4.364z"/>
        </g>
        <g>
            <rect fill="#004EFF" x="20" y="20" width="20" height="20" rx="10"/>
            <path d="M0 0c10.31 0 18.667 8.357 18.667 18.667V40C8.357 40 0 31.643 0 21.333V0z" fill="#FFA310"/>
        </g>
    </g>
</svg>
